<?xml version="1.0" encoding="UTF-8"?>
<svg version="1.1" xmlns="http://www.w3.org/2000/svg" width="2000" height="2364">
<path d="M0 0 C1.46047724 0.16750137 2.92114556 0.33334684 4.38201904 0.49735641 C36.75093615 4.14408248 63.4746243 16.94333492 87.4664917 39.06023979 C89.55218463 40.97950222 91.67683518 42.83447859 93.82977295 44.67742729 C100.3501142 50.36958004 106.35409105 56.54061421 111.97821045 63.11492729 C113.20826271 64.5329788 114.46532672 65.92790407 115.74383545 67.30242729 C125.54021609 77.84689518 134.07927283 89.46013719 142.14227295 101.36492729 C142.60544922 102.03975151 143.06862549 102.71457573 143.5458374 103.40984917 C151.89418923 115.96734149 156.72693501 129.21641315 161.20477295 143.48992729 C161.80442383 145.37053804 162.40536881 147.25073656 163.00750732 149.13055229 C164.27914573 153.10269098 165.54587191 157.07634933 166.80975342 161.05096245 C169.74054706 170.24685712 172.75115769 179.41669391 175.75582886 188.58865166 C177.45023254 193.76306796 179.1399227 198.9390225 180.82977295 204.11492729 C181.16159073 205.13104591 181.49340851 206.14716454 181.83528137 207.19407463 C185.43798858 218.22817042 189.03010184 229.26570945 192.62176514 240.30340385 C197.32764219 254.76445135 202.04509701 269.22169445 206.76727295 283.67742729 C211.77528087 299.0081616 216.77672657 314.34099983 221.76727295 329.67742729 C228.40870513 350.08635481 235.06953017 370.48892598 241.73406982 390.89031792 C244.03558576 397.93609009 246.33544688 404.98240075 248.63446045 412.02898979 C256.25080999 435.37096864 263.88885029 458.70575522 271.54285049 482.03540993 C276.94912308 498.51409979 282.34460484 514.99617103 287.70477295 531.48992729 C293.93813376 550.67029276 300.22668164 569.83244429 306.51852417 588.99368095 C312.24220554 606.42480834 317.95443832 623.85956153 323.64227295 641.30242729 C330.07264049 661.01997226 336.54059483 680.72505883 343.01727295 700.42742729 C343.26244534 701.17325695 343.50761772 701.91908661 343.76021957 702.68751717 C344.25584396 704.19522947 344.75147009 705.7029412 345.24709797 707.21065235 C346.48431763 710.97430839 347.72151236 714.73797263 348.9586792 718.50164604 C349.20345442 719.2462842 349.44822964 719.99092236 349.70042229 720.75812531 C354.7925753 736.24964461 359.87541584 751.74420832 364.95477295 767.23992729 C365.36259003 768.48400352 365.7704071 769.72807976 366.19058228 771.00985527 C369.4561776 780.97195105 372.72118297 790.93424016 375.98614502 800.8965435 C395.01160563 858.94790641 414.07957249 916.98522026 433.18078136 975.01170254 C440.44822404 997.089144 447.71060447 1019.16824221 454.96818924 1041.24892616 C463.72619715 1067.89451356 472.49356784 1094.5370045 481.26727295 1121.17742729 C489.79500996 1147.0709941 498.31716947 1172.96638122 506.82977295 1198.86492729 C514.82361025 1223.18496711 522.82176067 1247.50358179 530.82535172 1271.82041359 C531.64099823 1274.29855437 532.45662535 1276.77670153 533.27224731 1279.25485039 C538.50205235 1295.14478976 543.73234844 1311.03456735 548.96401215 1326.92389488 C562.12405563 1366.89289754 575.26768848 1406.86713842 588.36834717 1446.85564995 C592.27027732 1458.76551501 596.1750466 1470.67444947 600.07968903 1482.58342552 C600.7036555 1484.48651908 601.32760033 1486.38961973 601.95153809 1488.2927227 C608.16711532 1507.25109872 614.3861005 1526.20835487 620.60688782 1545.1650219 C640.02103897 1604.32616991 659.42769391 1663.48977889 678.74786377 1722.68169975 C684.07953181 1739.01627523 689.42121165 1755.3475572 694.76727295 1771.67742729 C700.76781544 1790.00645009 706.76080621 1808.33791332 712.74475098 1826.67236137 C717.73396369 1841.95849298 722.73291982 1857.24141447 727.73657227 1872.52282524 C734.03442313 1891.75696402 740.31945126 1910.99516496 746.58026123 1930.24139214 C750.96619819 1943.72325508 755.3648122 1957.20095177 759.76727295 1970.67742729 C763.62559774 1982.48857384 767.48350224 1994.29984876 771.32977295 2006.11492729 C771.61573334 2006.99334282 771.90169373 2007.87175835 772.19631958 2008.77679253 C773.62005952 2013.15095091 775.04299911 2017.52536823 776.46502686 2021.90008354 C779.59942968 2031.53944337 782.74923955 2041.17355094 785.91571045 2050.80242729 C806.27158676 2112.73889924 806.27158676 2112.73889924 808.76727295 2129.17742729 C808.9477417 2130.34402885 809.12821045 2131.51063042 809.31414795 2132.71258354 C813.06308175 2164.0033369 807.55168134 2196.25552831 787.82977295 2221.42742729 C786.49008994 2223.02303415 785.13572984 2224.60642839 783.76727295 2226.17742729 C783.05699951 2227.0088726 782.34672607 2227.84031792 781.6149292 2228.69695854 C767.68504857 2244.63430879 750.49094669 2256.52063397 731.76727295 2266.17742729 C730.94581787 2266.60378471 730.12436279 2267.03014214 729.27801514 2267.46941948 C705.85792093 2279.48660118 681.99136853 2287.19866838 656.45477295 2293.17742729 C654.93593506 2293.53417534 654.93593506 2293.53417534 653.38641357 2293.89813042 C636.7224275 2297.78026604 620.65805215 2300.54371361 603.50604248 2300.49310112 C601.2684092 2300.4899289 599.03208942 2300.51356857 596.7946167 2300.53875542 C584.20686916 2300.59470672 572.22834417 2298.88071914 560.32977295 2294.55242729 C559.63005371 2294.29936821 558.93033447 2294.04630913 558.20941162 2293.78558159 C541.64286355 2287.52132656 526.81516413 2277.12030467 514.76727295 2264.17742729 C513.96289795 2263.39367729 513.15852295 2262.60992729 512.32977295 2261.80242729 C498.01107412 2247.1344919 486.88200626 2229.71492722 479.97039795 2210.37273979 C479.02609948 2207.86483023 478.0075675 2205.48554177 476.89016724 2203.05544853 C474.82641563 2198.43127719 473.16484227 2193.74546452 471.59783936 2188.93377495 C471.30762909 2188.05543495 471.01741882 2187.17709496 470.71841431 2186.2721386 C469.7640923 2183.38003741 468.81641604 2180.48580607 467.86883545 2177.59148979 C467.19103016 2175.53247365 466.51282975 2173.47358754 465.83425903 2171.41482353 C464.04355597 2165.97802776 462.25856077 2160.53937416 460.47467041 2155.10033989 C458.71261084 2149.73159258 456.94465333 2144.36478877 455.1774292 2138.99773979 C447.95647668 2117.05765034 440.77914916 2095.10352644 433.63616943 2073.13793755 C428.79362145 2058.24737103 423.91820668 2043.36779987 419.02966309 2028.49227715 C416.99561669 2022.30180701 414.96349596 2016.11070422 412.93133545 2009.91961479 C412.70808846 2009.23951599 412.48484146 2008.55941719 412.25482941 2007.85870934 C408.07881425 1995.13601487 403.91940429 1982.40793532 399.76727295 1969.67742729 C393.62215143 1950.83700291 387.44899882 1932.00586356 381.26727295 1913.17742729 C375.06502775 1894.28639104 368.8711342 1875.39271631 362.70477295 1856.48992729 C356.78347614 1838.33877186 350.84272036 1820.1940439 344.89227295 1802.05242729 C343.18910161 1796.85973416 341.48595267 1791.66703368 339.78289795 1786.47430229 C339.57262907 1785.83318316 339.36236019 1785.19206402 339.14571953 1784.53151703 C334.63912512 1770.79026931 330.13954292 1757.04672937 325.64227295 1743.30242729 C325.27474915 1742.17923088 324.90722534 1741.05603447 324.52856445 1739.8988018 C322.68062374 1734.25115023 320.83280674 1728.60345819 318.98504639 1722.9557476 C316.74876885 1716.12066357 314.51199811 1709.285741 312.27508545 1702.45086479 C311.90343262 1701.3152813 311.53177979 1700.1796978 311.14886475 1699.00970268 C310.02167549 1695.56560827 308.89447622 1692.12151712 307.76727295 1688.67742729 C299.49847412 1663.41269747 299.49847412 1663.41269747 295.44363403 1651.01901054 C293.59329789 1645.36344433 291.74282164 1639.70792396 289.89227295 1634.05242729 C289.52491028 1632.92971428 289.15754761 1631.80700127 288.77905273 1630.65026665 C284.44068063 1617.39235135 280.09891238 1604.13555432 275.75164795 1590.88055229 C275.43640325 1589.91934943 275.43640325 1589.91934943 275.11478996 1588.93872833 C273.41048585 1583.74224903 271.70609779 1578.54579727 270.00166702 1573.34935951 C263.94502949 1554.88377053 257.90203463 1536.41378804 251.87512207 1517.93847466 C246.02636249 1500.01137759 240.14942354 1482.09358712 234.26727295 1464.17742729 C227.7453243 1444.31253733 221.23526437 1424.44387103 214.75115967 1404.56658745 C209.10677936 1387.26464576 203.44006981 1369.97006722 197.76727295 1352.67742729 C191.77498426 1334.41086616 185.79169158 1316.14142848 179.82977295 1297.86492729 C173.66348023 1278.96211593 167.46949312 1260.06847165 161.26727295 1241.17742729 C155.06505273 1222.28638279 148.87113423 1203.39271638 142.70477295 1184.48992729 C136.78347614 1166.33877186 130.84272036 1148.1940439 124.89227295 1130.05242729 C123.18910161 1124.85973416 121.48595267 1119.66703368 119.78289795 1114.47430229 C119.57262907 1113.83318316 119.36236019 1113.19206402 119.14571953 1112.53151703 C114.63912512 1098.79026931 110.13954292 1085.04672937 105.64227295 1071.30242729 C105.27474915 1070.17923088 104.90722534 1069.05603447 104.52856445 1067.8988018 C102.68062374 1062.25115023 100.83280674 1056.60345819 98.98504639 1050.9557476 C96.74876885 1044.12066357 94.51199811 1037.285741 92.27508545 1030.45086479 C91.90343262 1029.3152813 91.53177979 1028.1796978 91.14886475 1027.00970268 C90.02167549 1023.56560827 88.89447622 1020.12151712 87.76727295 1016.67742729 C79.49847412 991.41269747 79.49847412 991.41269747 75.44363403 979.01901054 C73.59329789 973.36344433 71.74282164 967.70792396 69.89227295 962.05242729 C69.52491028 960.92971428 69.15754761 959.80700127 68.77905273 958.65026665 C64.44068063 945.39235135 60.09891408 932.13555376 55.75164795 918.88055229 C55.54146404 918.23968807 55.33128014 917.59882385 55.11472702 916.93853951 C54.050351 913.69322808 52.9859374 910.44792899 51.92150879 907.20263481 C51.60492435 906.23741276 51.60492435 906.23741276 51.28194427 905.25269127 C50.85533632 903.95202623 50.42872601 902.65136197 50.00211334 901.35069847 C43.92260908 882.81513277 37.85630656 864.27531207 31.8057251 845.73028374 C26.18339985 828.49924697 20.54113822 811.27477784 14.89227295 794.05242729 C14.46586049 792.75235829 14.03944854 791.45228911 13.61303711 790.15221977 C13.40197641 789.50872519 13.19091572 788.8652306 12.97345924 788.20223618 C11.90991036 784.95960088 10.84638953 781.71695638 9.78289795 778.47430229 C9.57262341 777.83316616 9.36234886 777.19203003 9.14570236 776.53146553 C4.63911379 762.79023494 0.1395373 749.04671217 -4.35772705 735.30242729 C-4.72525085 734.17923088 -5.09277466 733.05603447 -5.47143555 731.8988018 C-7.31937626 726.25115023 -9.16719326 720.60345819 -11.01495361 714.9557476 C-13.25123115 708.12066357 -15.48800189 701.285741 -17.72491455 694.45086479 C-18.09656738 693.3152813 -18.46822021 692.1796978 -18.85113525 691.00970268 C-19.97832451 687.56560827 -21.10552378 684.12151712 -22.23272705 680.67742729 C-30.50152588 655.41269747 -30.50152588 655.41269747 -34.55636597 643.01901054 C-36.40670211 637.36344433 -38.25717836 631.70792396 -40.10772705 626.05242729 C-40.47508972 624.92971428 -40.84245239 623.80700127 -41.22094727 622.65026665 C-45.55931937 609.39235135 -49.90108592 596.13555376 -54.24835205 582.88055229 C-54.45853596 582.23968807 -54.66871986 581.59882385 -54.88527298 580.93853951 C-55.949649 577.69322808 -57.0140626 574.44792899 -58.07849121 571.20263481 C-58.39507565 570.23741276 -58.39507565 570.23741276 -58.71805573 569.25269127 C-59.14466368 567.95202623 -59.57127399 566.65136197 -59.99788666 565.35069847 C-66.07739092 546.81513277 -72.14369344 528.27531207 -78.1942749 509.73028374 C-83.81660015 492.49924697 -89.45886178 475.27477784 -95.10772705 458.05242729 C-95.53413951 456.75235829 -95.96055146 455.45228911 -96.38696289 454.15221977 C-96.59802359 453.50872519 -96.80908428 452.8652306 -97.02654076 452.20223618 C-98.09008964 448.95960088 -99.15361047 445.71695638 -100.21710205 442.47430229 C-100.42737659 441.83316616 -100.63765114 441.19203003 -100.85429764 440.53146553 C-105.36088625 426.79023481 -109.86028166 413.04665302 -114.35772705 399.30242729 C-115.09388976 397.05299608 -115.83005512 394.80356574 -116.56622314 392.55413628 C-119.98029074 382.1214233 -123.3929769 371.68826105 -126.80276489 361.25414848 C-128.39629543 356.3782271 -129.99047671 351.50251858 -131.5847168 346.62682915 C-132.32905957 344.34979481 -133.07309697 342.07266061 -133.81677246 339.79540825 C-139.55227607 322.23256825 -145.37466083 304.69968869 -151.23272705 287.17742729 C-173.59435495 354.964892 -173.59435495 354.964892 -195.6350708 422.85711479 C-197.06169538 427.29126313 -198.48854415 431.72533922 -199.91576385 436.15929604 C-200.33464127 437.46067438 -200.75346978 438.76206847 -201.17224884 440.06347847 C-208.94323133 464.21105626 -216.85332743 488.31158983 -224.79896164 512.40219307 C-231.32039913 532.17575246 -237.80740178 551.95702193 -244.10772705 571.80242729 C-251.19560681 594.12681309 -258.52084493 616.3714221 -265.85772705 638.61492729 C-266.15495541 639.51606884 -266.45218376 640.41721039 -266.75841904 641.34565926 C-268.23652845 645.82686753 -269.71477163 650.30803167 -271.19300842 654.78919792 C-271.62131927 656.0876184 -271.62131927 656.0876184 -272.05828285 657.41226959 C-272.62887309 659.14198276 -273.19948937 660.87168734 -273.77013206 662.60138321 C-279.50389178 679.9824405 -285.18319635 697.38078761 -290.83120728 714.78988457 C-292.89635838 721.15154525 -294.97523235 727.50866926 -297.0569458 733.86492729 C-305.00599365 758.1143367 -305.00599365 758.1143367 -312.81866455 782.40789604 C-313.11542084 783.34069893 -313.41217712 784.27350182 -313.71792603 785.23457146 C-314.32837698 787.15389945 -314.93879939 789.07323652 -315.54919434 790.99258232 C-323.57503902 816.2242743 -331.86425382 841.36658277 -340.16755676 866.50797844 C-347.27748885 888.03690061 -354.38074673 909.56469426 -361.23272705 931.17742729 C-368.38498177 953.73729531 -375.81079174 976.20519715 -383.23272705 998.67742729 C-394.39799184 1032.4776196 -394.39799184 1032.4776196 -405.29522705 1066.36492729 C-412.31738865 1088.5028824 -419.58263366 1110.55909126 -426.85772705 1132.61492729 C-427.15515556 1133.51666931 -427.45258408 1134.41841133 -427.75902557 1135.34747887 C-429.23707412 1139.82849127 -430.71525072 1144.30946144 -432.19342041 1148.79043388 C-432.62162079 1150.08852297 -432.62162079 1150.08852297 -433.05847168 1151.41283607 C-433.62898139 1153.14230906 -434.19951755 1154.87177331 -434.77008057 1156.60122871 C-440.50385766 1173.98233744 -446.18317959 1191.38073597 -451.83120728 1208.78988457 C-453.89635838 1215.15154525 -455.97523235 1221.50866926 -458.0569458 1227.86492729 C-466.00599365 1252.1143367 -466.00599365 1252.1143367 -473.81866455 1276.40789604 C-474.11542084 1277.34069893 -474.41217712 1278.27350182 -474.71792603 1279.23457146 C-475.32837698 1281.15389945 -475.93879939 1283.07323652 -476.54919434 1284.99258232 C-484.57489657 1310.22382645 -492.86398786 1335.36567934 -501.16711044 1360.50663948 C-508.2978091 1382.09856283 -515.42091332 1403.6896884 -522.29522705 1425.36492729 C-529.31738865 1447.5028824 -536.58263366 1469.55909126 -543.85772705 1491.61492729 C-544.15515556 1492.51666931 -544.45258408 1493.41841133 -544.75902557 1494.34747887 C-546.23707412 1498.82849127 -547.71525072 1503.30946144 -549.19342041 1507.79043388 C-549.62162079 1509.08852297 -549.62162079 1509.08852297 -550.05847168 1510.41283607 C-550.62898139 1512.14230906 -551.19951755 1513.87177331 -551.77008057 1515.60122871 C-557.50385766 1532.98233744 -563.18317959 1550.38073597 -568.83120728 1567.78988457 C-570.89635838 1574.15154525 -572.97523235 1580.50866926 -575.0569458 1586.86492729 C-583.00599365 1611.1143367 -583.00599365 1611.1143367 -590.81866455 1635.40789604 C-591.11542084 1636.34069893 -591.41217712 1637.27350182 -591.71792603 1638.23457146 C-592.32837698 1640.15389945 -592.93879939 1642.07323652 -593.54919434 1643.99258232 C-601.57503902 1669.2242743 -609.86425382 1694.36658277 -618.16755676 1719.50797844 C-625.27748885 1741.03690061 -632.38074673 1762.56469426 -639.23272705 1784.17742729 C-646.38498177 1806.73729531 -653.81079174 1829.20519715 -661.23272705 1851.67742729 C-672.39799184 1885.4776196 -672.39799184 1885.4776196 -683.29522705 1919.36492729 C-690.31738865 1941.5028824 -697.58263366 1963.55909126 -704.85772705 1985.61492729 C-705.15515556 1986.51666931 -705.45258408 1987.41841133 -705.75902557 1988.34747887 C-707.23707412 1992.82849127 -708.71525072 1997.30946144 -710.19342041 2001.79043388 C-710.62162079 2003.08852297 -710.62162079 2003.08852297 -711.05847168 2004.41283607 C-711.62898139 2006.14230906 -712.19951755 2007.87177331 -712.77008057 2009.60122871 C-718.50385766 2026.98233744 -724.18317959 2044.38073597 -729.83120728 2061.78988457 C-731.89635839 2068.15154528 -733.97524369 2074.50866553 -736.0569458 2080.86492729 C-737.40742048 2084.98985718 -738.75766735 2089.11486157 -740.10772705 2093.23992729 C-740.44127197 2094.25891106 -740.77481689 2095.27789482 -741.11846924 2096.32775688 C-745.60125224 2110.03024237 -750.02138496 2123.75133002 -754.39141846 2137.49017143 C-759.63943532 2153.98814607 -764.89564905 2170.48483975 -770.4225769 2186.89193535 C-770.9489673 2188.45813861 -771.4716227 2190.02560392 -771.98989868 2191.59451103 C-775.53199368 2202.29376192 -779.90897851 2212.2439239 -785.23272705 2222.17742729 C-785.73530029 2223.11538139 -786.23787354 2224.05333549 -786.75567627 2225.01971245 C-788.0307328 2227.34122972 -789.33621453 2229.63935057 -790.67022705 2231.92742729 C-791.36934204 2233.12661797 -791.36934204 2233.12661797 -792.08258057 2234.35003471 C-796.03017213 2241.01643485 -800.31756382 2247.17541278 -805.23272705 2253.17742729 C-805.6822876 2253.7323687 -806.13184814 2254.2873101 -806.59503174 2254.85906792 C-826.030746 2278.7293358 -850.94216676 2296.63583944 -882.23272705 2300.17742729 C-888.08040381 2300.56257946 -893.93721248 2300.5692422 -899.79522705 2300.55242729 C-900.61074036 2300.55088646 -901.42625366 2300.54934563 -902.26647949 2300.5477581 C-917.22191825 2300.48091306 -931.55977005 2299.20312713 -946.23272705 2296.17742729 C-946.97536804 2296.02471367 -947.71800903 2295.87200005 -948.4831543 2295.71465874 C-954.43244495 2294.48391689 -960.36602062 2293.18875446 -966.29522705 2291.86492729 C-967.10667175 2291.68664391 -967.91811646 2291.50836052 -968.75415039 2291.32467461 C-980.0313573 2288.82083975 -990.59554985 2285.41408605 -1001.26535034 2280.9908123 C-1003.99880241 2279.86070391 -1006.7515769 2278.78042498 -1009.5022583 2277.69305229 C-1049.14463448 2261.62228929 -1087.03569743 2238.58615378 -1105.23272705 2198.17742729 C-1117.49718494 2168.05924033 -1115.21475881 2135.39803536 -1105.5569458 2104.90008354 C-1105.17387268 2103.67864143 -1104.79079956 2102.45719933 -1104.39611816 2101.19874382 C-1098.33229924 2081.95258734 -1091.92004853 2062.8159798 -1085.57441711 2043.66151237 C-1083.71719933 2038.0532572 -1081.86315523 2032.44395329 -1080.00909424 2026.83465385 C-1079.63908924 2025.71525351 -1079.26908424 2024.59585316 -1078.88786697 2023.44253159 C-1078.14368414 2021.19107548 -1077.39951422 2018.9396151 -1076.65535736 2016.68815041 C-1075.54981366 2013.34364651 -1074.44394759 2009.99924936 -1073.3380127 2006.6548748 C-1067.69459435 1989.58720432 -1062.07842172 1972.51079752 -1056.48272705 1955.42742729 C-1048.30198464 1930.45997676 -1040.08437734 1905.50478534 -1031.85772705 1880.55242729 C-1023.07428391 1853.9107261 -1014.29799476 1827.26672335 -1005.54522705 1800.61492729 C-1003.68331541 1794.94563428 -1001.82136572 1789.27635377 -999.95928955 1783.60711479 C-999.61254653 1782.55141698 -999.61254653 1782.55141698 -999.2587986 1781.47439194 C-993.32000974 1763.39380181 -987.3703714 1745.31678297 -981.42022705 1727.23992729 C-980.87358576 1725.57917095 -980.32694473 1723.91841452 -979.78030396 1722.257658 C-976.75791913 1713.07538847 -973.73533234 1703.89318541 -970.71267033 1694.71100712 C-965.51061478 1678.9082814 -960.30901744 1663.10540487 -955.10772705 1647.30242729 C-954.83809017 1646.48320415 -954.56845329 1645.66398102 -954.2906456 1644.81993294 C-946.26654906 1620.44067155 -938.24749058 1596.05975844 -930.23272705 1571.67742729 C-921.94592061 1546.4674934 -913.65423211 1521.25917112 -905.35772705 1496.05242729 C-905.08818459 1495.2334874 -904.81864212 1494.4145475 -904.5409317 1493.57079124 C-900.16412256 1480.27293841 -895.78699066 1466.97519183 -891.40982056 1453.67745781 C-887.30897012 1441.21916453 -883.20823491 1428.76083333 -879.10772705 1416.30242729 C-878.83802345 1415.483004 -878.56831985 1414.6635807 -878.29044342 1413.8193264 C-870.26640542 1389.44027011 -862.24742403 1365.05955598 -854.23272705 1340.67742729 C-845.94592061 1315.4674934 -837.65423211 1290.25917112 -829.35772705 1265.05242729 C-829.08818459 1264.2334874 -828.81864212 1263.4145475 -828.5409317 1262.57079124 C-824.16412256 1249.27293841 -819.78699066 1235.97519183 -815.40982056 1222.67745781 C-811.30897012 1210.21916453 -807.20823491 1197.76083333 -803.10772705 1185.30242729 C-802.83802345 1184.483004 -802.56831985 1183.6635807 -802.29044342 1182.8193264 C-793.77247567 1156.93958664 -785.26060665 1131.05784693 -776.75268555 1105.17480278 C-768.64407036 1080.50669127 -760.52826541 1055.84095164 -752.40940475 1031.1762104 C-744.36606492 1006.74084999 -736.32797877 982.30377033 -728.29522705 957.86492729 C-719.49697029 931.0971118 -710.68802045 904.33282994 -701.87406158 877.57018089 C-693.63258289 852.5456844 -685.39711656 827.51922385 -677.17022705 802.48992729 C-668.9044134 777.34244061 -660.63368679 752.19657685 -652.35772705 727.05242729 C-652.08811787 726.23328724 -651.81850868 725.41414719 -651.54072952 724.57018471 C-647.1639826 711.27253576 -642.78692403 697.9749894 -638.40982056 684.67745781 C-634.30897012 672.21916453 -630.20823491 659.76083333 -626.10772705 647.30242729 C-625.83802345 646.483004 -625.56831985 645.6635807 -625.29044342 644.8193264 C-617.26640542 620.44027011 -609.24742403 596.05955598 -601.23272705 571.67742729 C-592.94592061 546.4674934 -584.65423211 521.25917112 -576.35772705 496.05242729 C-576.08818459 495.2334874 -575.81864212 494.4145475 -575.5409317 493.57079124 C-571.16412256 480.27293841 -566.78699066 466.97519183 -562.40982056 453.67745781 C-558.30897012 441.21916453 -554.20823491 428.76083333 -550.10772705 416.30242729 C-549.70317165 415.07329235 -549.70317165 415.07329235 -549.29044342 413.8193264 C-540.77247567 387.93958664 -532.26060665 362.05784693 -523.75268555 336.17480278 C-516.46480429 314.00353639 -509.17162798 291.83401789 -501.87466431 269.66573906 C-497.80508242 257.30222153 -493.73617534 244.93848187 -489.66725063 232.57474804 C-488.31054423 228.45231512 -486.95378618 224.32989921 -485.59692383 220.20751762 C-482.6455161 211.24058558 -479.69465093 202.27347556 -476.74498558 193.30597019 C-475.21076495 188.64194645 -473.67546976 183.97827817 -472.1393795 179.31486988 C-467.75816123 166.01213831 -463.38251277 152.70864203 -459.1272583 139.36492729 C-458.82619675 138.42418861 -458.52513519 137.48344994 -458.21495056 136.51420403 C-456.90916734 132.43377718 -455.61078571 128.35156894 -454.33502197 124.26165581 C-446.57612316 99.73134049 -434.9611796 76.2889321 -417.29522705 57.39617729 C-415.45826956 55.42005636 -413.7546154 53.38788108 -412.04522705 51.30242729 C-392.51701616 29.03577764 -363.55807407 13.88426975 -334.8928833 7.75164604 C-333.41635033 7.43429497 -333.41635033 7.43429497 -331.9099884 7.11053276 C-319.2458581 4.46347011 -306.46606531 2.560863 -293.67022705 0.67742729 C-292.36757904 0.48388664 -291.06493103 0.29034599 -289.72280884 0.09094048 C-266.16360814 -3.40381103 -242.57616704 -6.39030004 -218.8581543 -8.57971382 C-216.26071686 -8.81998358 -213.66397067 -9.06691638 -211.06719971 -9.31427193 C-140.36429644 -15.94977027 -70.23484667 -8.07747094 0 0 Z " fill="#FFFFFF" transform="translate(1149.2327270507813,34.82257270812988)"/>
<path d="M0 0 C0.55461914 0.45310547 1.10923828 0.90621094 1.68066406 1.37304688 C14.66768541 12.04069596 26.78174052 23.61808012 37 37 C37.41282227 37.53109375 37.82564453 38.0621875 38.25097656 38.609375 C74.97686535 86.01866444 88.70779948 144.8963174 81.875 204.125 C74.54458619 259.82978649 45.22978009 312.08659865 0.80859375 346.87109375 C-0.11824219 347.57363281 -1.04507812 348.27617188 -2 349 C-2.53351074 349.41523926 -3.06702148 349.83047852 -3.61669922 350.25830078 C-28.86955448 369.88668899 -57.74171745 382.9756794 -88.9375 389.875 C-89.79875488 390.06602295 -90.66000977 390.2570459 -91.54736328 390.45385742 C-106.68577895 393.58227416 -121.71154287 394.37768413 -137.125 394.3125 C-138.02319458 394.31067719 -138.92138916 394.30885437 -139.84680176 394.30697632 C-153.74670387 394.25958538 -167.33127303 393.73267898 -181 391 C-181.87382324 390.82839355 -182.74764648 390.65678711 -183.64794922 390.47998047 C-224.97859894 382.09090065 -259.70129779 361.91559455 -290 333 C-290.87269531 332.16855469 -291.74539063 331.33710937 -292.64453125 330.48046875 C-298.58707676 324.68397659 -303.8939538 318.5404302 -309 312 C-309.72960937 311.07574219 -310.45921875 310.15148438 -311.2109375 309.19921875 C-348.68497828 260.6144536 -361.43842819 199.59383601 -353.8125 139.25 C-350.25105298 113.74850367 -342.23145048 89.62517071 -330 67 C-329.68063477 66.4013916 -329.36126953 65.8027832 -329.03222656 65.18603516 C-321.32675342 50.83508035 -311.73303004 38.20171834 -301 26 C-300.20335937 25.09121094 -299.40671875 24.18242188 -298.5859375 23.24609375 C-291.46173562 15.22830641 -284.14250037 7.91249689 -275.7578125 1.20703125 C-274.06643149 -0.14655271 -272.39040028 -1.51995271 -270.7421875 -2.92578125 C-258.00885474 -13.64041492 -243.16375205 -22.21455427 -228 -29 C-226.87803223 -29.50225098 -226.87803223 -29.50225098 -225.73339844 -30.01464844 C-152.7673395 -62.08598677 -61.57481926 -50.74469257 0 0 Z " fill="#FFFFFF" transform="translate(1130,1449)"/>
</svg>
